<?xml version="1.0" standalone="no"?>
<!DOCTYPE svg PUBLIC "-//W3C//DTD SVG 20010904//EN"
 "http://www.w3.org/TR/2001/REC-SVG-20010904/DTD/svg10.dtd">
<svg version="1.0" xmlns="http://www.w3.org/2000/svg"
 width="1024.000000pt" height="1024.000000pt" viewBox="0 0 1024.000000 1024.000000"
 preserveAspectRatio="xMidYMid meet">
<metadata>
Created by potrace 1.14, written by Peter Selinger 2001-2017
</metadata>
<g transform="translate(0.000000,1024.000000) scale(0.100000,-0.100000)"
fill="#000000" stroke="none">
<path d="M0 5120 l0 -5120 5120 0 5120 0 0 5120 0 5120 -5120 0 -5120 0 0
-5120z m6858 4355 c46 -9 115 -34 170 -61 157 -76 277 -213 340 -386 l27 -73
3 -3845 c2 -4257 8 -3887 -63 -4038 -67 -143 -174 -249 -320 -318 -144 -68
-13 -64 -1876 -64 -1645 0 -1688 0 -1763 20 -122 31 -208 82 -306 180 -98 97
-147 184 -180 314 -20 78 -20 117 -20 3886 0 3756 0 3808 20 3884 66 260 284
461 548 506 26 4 789 8 1695 9 1441 1 1658 -1 1725 -14z"/>
<path d="M4720 8622 c-106 -53 -105 -192 2 -248 22 -11 101 -14 413 -14 363 0
388 1 424 20 44 22 71 70 71 125 0 49 -25 88 -70 114 -36 20 -50 21 -421 21
-346 0 -387 -2 -419 -18z"/>
<path d="M3140 5020 l0 -2800 2001 0 2000 0 -2 2800 -2 2800 -1998 0 -1999 0
0 -2800z"/>
<path d="M5033 1896 c-194 -63 -318 -263 -285 -457 42 -247 288 -403 521 -330
243 76 361 338 256 569 -34 74 -115 156 -193 194 -58 29 -77 33 -161 35 -61 2
-111 -2 -138 -11z"/>
</g>
</svg>
